<svg width="95" height="29" viewBox="0 0 95 29" fill="none" xmlns="http://www.w3.org/2000/svg">
<path d="M2.048 18.632C2.41067 18.632 2.688 18.7493 2.88 18.984C3.072 19.1973 3.136 19.5067 3.072 19.912C3.008 20.296 2.848 20.6053 2.592 20.84C2.336 21.0747 2.02667 21.192 1.664 21.192C1.32267 21.192 1.04533 21.0747 0.832 20.84C0.64 20.6053 0.565333 20.296 0.608 19.912C0.672 19.5067 0.842667 19.1973 1.12 18.984C1.39733 18.7493 1.70667 18.632 2.048 18.632ZM12.2917 7.016C12.0357 6.888 11.6624 6.824 11.1717 6.824C10.7024 6.824 10.3824 6.97333 10.2117 7.272C10.0411 7.54933 9.90242 8.05067 9.79575 8.776L9.66775 9.672H11.7158L11.3637 11.848H9.37975L7.36375 26.024H4.38775L6.40375 11.848H5.18775L5.47575 9.672H6.65975L6.85175 8.36C7.04375 6.97333 7.41708 5.98133 7.97175 5.384C8.54775 4.76533 9.26242 4.456 10.1157 4.456C11.2251 4.456 12.0784 4.60533 12.6758 4.904C12.5904 5.544 12.4624 6.248 12.2917 7.016ZM18.1427 19.112C18.7827 19.112 19.284 18.8133 19.6467 18.216C20.0307 17.6187 20.308 16.6587 20.4787 15.336C20.6707 13.992 20.66 13.032 20.4467 12.456C20.2334 11.88 19.8174 11.592 19.1987 11.592C18.58 11.592 18.0894 11.88 17.7267 12.456C17.364 13.032 17.0867 13.992 16.8947 15.336C16.724 16.68 16.7347 17.6507 16.9267 18.248C17.1187 18.824 17.524 19.112 18.1427 19.112ZM23.6147 12.616C23.7427 13.3627 23.7214 14.2693 23.5507 15.336C23.4014 16.4027 23.156 17.3093 22.8147 18.056C22.4947 18.8027 22.0894 19.4213 21.5987 19.912C20.6814 20.8293 19.4334 21.288 17.8547 21.288C15.508 21.288 14.1534 20.2107 13.7907 18.056C13.6627 17.3093 13.684 16.392 13.8547 15.304C14.0894 13.2987 14.74 11.7947 15.8067 10.792C16.7667 9.87467 17.9934 9.416 19.4867 9.416C21.876 9.416 23.252 10.4827 23.6147 12.616ZM27.4497 21H24.4737L26.0737 9.672H28.6977L28.6017 11.176H28.6337C28.9537 10.664 29.359 10.2373 29.8497 9.896C30.3404 9.55467 30.767 9.384 31.1297 9.384C31.4924 9.384 31.727 9.416 31.8337 9.48C31.9617 9.52267 32.079 9.56533 32.1857 9.608L31.5777 12.2C31.4497 12.1787 31.279 12.136 31.0657 12.072C30.8737 12.008 30.6497 11.976 30.3937 11.976C30.1377 11.976 29.871 12.0613 29.5937 12.232C29.3164 12.4027 28.9644 12.68 28.5377 13.064L27.4497 21ZM33.0518 21L35.0998 6.472H42.9398L42.5558 8.968H37.8518L37.3718 12.328H40.9558L40.6358 14.664H37.0198L36.4758 18.504H41.2438L40.9238 21H33.0518ZM51.1845 11.816C50.8005 11.7733 50.2992 11.752 49.6805 11.752C49.0618 11.752 48.5392 12.008 48.1125 12.52C47.7072 13.032 47.4085 13.96 47.2165 15.304C47.0458 16.6267 47.0565 17.5333 47.2485 18.024C47.4618 18.5147 47.8672 18.76 48.4645 18.76C48.8272 18.76 49.1792 18.6533 49.5205 18.44C49.8832 18.2053 50.1712 17.96 50.3845 17.704L51.1845 11.816ZM50.3845 19.656C49.1685 20.744 47.9845 21.288 46.8325 21.288C45.1685 21.288 44.2192 20.2533 43.9845 18.184C43.8992 17.4587 43.9312 16.5627 44.0805 15.496C44.2298 14.408 44.4858 13.48 44.8485 12.712C45.2112 11.944 45.6378 11.3147 46.1285 10.824C47.0458 9.928 48.1872 9.48 49.5525 9.48C51.1738 9.48 52.8058 9.64 54.4485 9.96L52.8805 21H50.3845V19.656ZM63.2854 12.072C62.5814 11.8373 61.9841 11.72 61.4934 11.72C60.7468 11.72 60.1601 12.0187 59.7334 12.616C59.3068 13.192 58.9974 14.1307 58.8054 15.432C58.6348 16.712 58.6881 17.6187 58.9654 18.152C59.2641 18.664 59.6801 18.92 60.2134 18.92C60.7681 18.92 61.2481 18.8453 61.6534 18.696C62.0588 18.5253 62.3361 18.4187 62.4854 18.376L62.9014 20.232C61.7281 20.936 60.6081 21.288 59.5414 21.288C56.4694 21.288 55.2001 19.3573 55.7334 15.496C56.2668 11.4427 58.1548 9.416 61.3974 9.416C62.3148 9.416 63.1681 9.56533 63.9574 9.864L63.2854 12.072ZM66.9707 5.128L70.0108 4.712L69.1147 11.112H69.1468C69.2321 11.048 69.3708 10.92 69.5627 10.728C69.7547 10.536 69.9894 10.344 70.2668 10.152C70.9708 9.66133 71.7174 9.416 72.5068 9.416C73.5734 9.416 74.2774 9.736 74.6188 10.376C74.9601 11.016 75.0347 12.008 74.8427 13.352L73.8188 21H70.8427L71.7707 14.088C71.8774 13.2773 71.8774 12.7333 71.7707 12.456C71.6641 12.1573 71.3761 12.008 70.9068 12.008C70.5014 12.008 70.1387 12.1253 69.8188 12.36C69.3067 12.7653 68.9761 13.064 68.8268 13.256L67.7387 21H64.7627L66.9707 5.128ZM83.0401 5.832C81.8455 6.92 80.8001 8.85067 79.9041 11.624C79.5841 12.6053 79.3388 13.672 79.1681 14.824C79.0188 15.976 78.9655 17.0427 79.0081 18.024C79.0508 18.984 79.1468 19.848 79.2961 20.616C79.6161 22.1093 80.0321 23.176 80.5441 23.816L78.4321 25.128C76.9601 23.7413 76.1388 21.5333 75.9681 18.504C75.9041 17.416 75.9681 16.2 76.1601 14.856C76.3735 13.4907 76.6508 12.264 76.9921 11.176C77.3548 10.088 77.7708 9.11733 78.2401 8.264C79.1148 6.68533 80.1601 5.42667 81.3761 4.488L83.0401 5.832ZM84.0284 23.816C84.711 23.1333 85.4044 22.056 86.1084 20.584C87.5164 17.704 88.1777 14.7067 88.0924 11.592C88.0284 9.77867 87.7297 8.264 87.1964 7.048C86.9617 6.49333 86.7484 6.088 86.5564 5.832L88.6364 4.488C90.1084 6.04533 90.9297 8.264 91.1004 11.144C91.1644 12.232 91.1004 13.4373 90.9084 14.76C90.7377 16.0827 90.4604 17.2987 90.0764 18.408C89.7137 19.496 89.2977 20.4667 88.8284 21.32C87.8897 23.0267 86.8657 24.296 85.7564 25.128L84.0284 23.816Z" fill="#2F80ED"/>
</svg>
